<svg xmlns="http://www.w3.org/2000/svg" width="1024" height="1024">
  <path fill="none" stroke="#000" stroke-linecap="round" stroke-linejoin="round" stroke-width="85.333" d="M725.333 85.333H298.666c-117.821 0-213.333 95.513-213.333 213.333v426.667c0 117.82 95.513 213.333 213.333 213.333h426.667c117.82 0 213.333-95.514 213.333-213.333V298.666c0-117.821-95.514-213.333-213.333-213.333z"/>
  <path fill="none" stroke="#000" stroke-linecap="round" stroke-linejoin="round" stroke-width="85.333" d="M682.667 485.111a170.681 170.681 0 0 1-92.091 177.48 170.67 170.67 0 0 1-103.846 16.051c-35.439-5.7-68.181-22.434-93.564-47.817a170.67 170.67 0 0 1 42.074-272.168 170.682 170.682 0 0 1 103.642-17.333 170.655 170.655 0 0 1 95.642 48.141 170.666 170.666 0 0 1 48.145 95.645zM746.667 277.333h.427"/>
</svg>
