<svg xmlns="http://www.w3.org/2000/svg" width="1024" height="1024">
  <path fill="none" stroke="#000" stroke-linecap="round" stroke-linejoin="round" stroke-width="85.333" d="M981.333 128.429a465.087 465.087 0 0 1-133.973 65.28c-25.698-29.546-59.849-50.488-97.835-59.993a191.138 191.138 0 0 0-204.544 78.071A191.133 191.133 0 0 0 512 321.709v42.667a454.82 454.82 0 0 1-384-193.28S-42.667 555.098 341.333 725.764a496.665 496.665 0 0 1-298.667 85.333c384 213.333 853.333 0 853.333-490.668a191.91 191.91 0 0 0-3.413-35.413 329.395 329.395 0 0 0 88.747-156.587v0z"/>
</svg>
